# xmcd
#
# Track frame offsets: 
#        150
#        1860
#        22009
#        44345
#        70264
#        90517
#        117188
#        138595
#        159823
#        181790
#        184219
#        203069
#        223280
#        246430
#
# Disc length: 3310 seconds
#
# Revision: 1
# Processed by: cddbd v1.5.2PL0 Copyright (c) Steve Scherf et al.
# Submitted via: ExactAudioCopy v1.0b3
#
DISCID=bf0cec0e
DTITLE=Carlos Morgan - Feelin' Alright
DYEAR=1996
DGENRE=R&B
TTITLE0=Retro
TTITLE1=Baby C'mon
TTITLE2=Don't Let This Thing Slide
TTITLE3=Feelin' Alright
TTITLE4=Get Down To It
TTITLE5=Le Me Love Again
TTITLE6=Give It To You
TTITLE7=What I've Done To You
TTITLE8=When Two Become One
TTITLE9=Love Again (Interlude)
TTITLE10=Forever For You
TTITLE11=Freak It With Me
TTITLE12=Never Get Over You
TTITLE13=Forever (Interlude)
EXTD=
EXTT0=
EXTT1=
EXTT2=
EXTT3=
EXTT4=
EXTT5=
EXTT6=
EXTT7=
EXTT8=
EXTT9=
EXTT10=
EXTT11=
EXTT12=
EXTT13=
PLAYORDER=
